<?xml version="1.0" standalone="no"?>
<!DOCTYPE svg PUBLIC "-//W3C//DTD SVG 20010904//EN"
 "http://www.w3.org/TR/2001/REC-SVG-20010904/DTD/svg10.dtd">
<svg version="1.0" xmlns="http://www.w3.org/2000/svg"
 width="605.000000pt" height="603.000000pt" viewBox="0 0 605.000000 603.000000"
 preserveAspectRatio="xMidYMid meet">

<g transform="translate(0.000000,603.000000) scale(0.100000,-0.100000)"
fill="#000000" stroke="none">
<path d="M0 3015 l0 -3015 3015 0 3015 0 0 3015 0 3015 -3015 0 -3015 0 0
-3015z m2335 934 c83 -25 151 -58 193 -93 16 -15 33 -26 38 -26 4 0 40 32 80
70 49 48 77 68 88 64 14 -5 16 -39 16 -290 0 -248 -2 -284 -15 -284 -9 0 -20
10 -25 23 -90 220 -123 282 -194 355 -93 98 -203 149 -344 158 -317 22 -503
-169 -553 -568 l-12 -98 -154 0 c-89 0 -153 4 -153 9 0 6 12 43 26 83 117 327
374 564 672 618 79 15 258 4 337 -21z m2200 0 c15 -15 21 -66 52 -432 l6 -79
-29 4 c-26 3 -29 8 -41 66 -37 185 -122 326 -226 376 -47 23 -64 25 -187 26
-74 1 -141 1 -147 1 -10 -1 -13 -73 -13 -326 l0 -325 -130 0 -130 0 0 325 c0
253 -3 325 -12 326 -7 0 -76 0 -152 -1 -125 -1 -144 -4 -186 -25 -95 -48 -173
-171 -212 -330 -11 -49 -22 -96 -24 -102 -2 -7 -15 -13 -29 -13 -30 0 -30 5
-14 180 5 63 14 160 19 215 7 85 11 102 30 117 21 17 61 18 716 16 614 -3 695
-5 709 -19z m-3124 -860 c29 -15 12 -31 -27 -23 -40 7 -64 -8 -64 -40 0 -28
18 -46 47 -46 18 0 23 6 23 25 0 16 6 25 15 25 21 0 21 -66 -1 -74 -62 -24
-124 11 -124 69 0 61 71 96 131 64z m159 -64 c0 -68 -2 -75 -20 -75 -18 0 -20
7 -20 75 0 68 2 75 20 75 18 0 20 -7 20 -75z m147 30 c10 -25 21 -45 24 -45 4
0 14 20 23 45 13 32 23 45 38 45 22 0 21 -10 -19 -96 -35 -76 -55 -73 -93 12
-35 78 -36 84 -11 84 13 0 25 -14 38 -45z m328 20 c72 -71 -38 -168 -119 -104
-19 15 -26 30 -26 54 0 68 95 101 145 50z m190 -16 l30 -41 3 41 c3 33 7 41
23 41 17 0 19 -7 19 -75 0 -67 -2 -75 -19 -75 -10 0 -33 17 -50 38 l-30 37 -1
-37 c0 -31 -4 -38 -20 -38 -18 0 -20 7 -20 75 0 65 2 75 18 75 9 0 31 -19 47
-41z m313 21 c14 -14 22 -33 22 -55 0 -51 -31 -75 -97 -75 l-53 0 0 75 0 75
53 0 c40 0 59 -5 75 -20z m257 -5 c72 -71 -38 -168 -119 -104 -19 15 -26 30
-26 54 0 68 95 101 145 50z m375 10 c0 -8 -9 -15 -20 -15 -18 0 -20 -7 -20
-60 0 -53 -2 -60 -20 -60 -18 0 -20 7 -20 60 0 57 -1 60 -25 60 -16 0 -25 6
-25 15 0 12 14 15 65 15 51 0 65 -3 65 -15z m203 -39 c39 -86 41 -96 19 -96
-11 0 -22 7 -26 15 -7 20 -66 19 -81 -1 -6 -9 -18 -15 -27 -13 -13 3 -10 16
16 76 25 58 35 73 53 73 16 0 27 -13 46 -54z m186 14 c12 -22 25 -40 29 -40 4
0 17 18 30 40 14 25 30 40 42 40 18 0 20 -7 20 -75 0 -68 -2 -75 -19 -75 -16
0 -20 8 -23 38 l-3 37 -20 -32 c-10 -18 -23 -33 -27 -33 -5 0 -17 15 -28 33
l-20 32 0 -37 c0 -31 -4 -38 -20 -38 -18 0 -20 7 -20 75 0 66 2 75 18 75 11 0
27 -16 41 -40z m283 0 c13 -22 26 -40 30 -40 4 0 17 18 29 40 14 24 30 40 41
40 16 0 18 -9 18 -75 0 -68 -2 -75 -20 -75 -16 0 -20 7 -20 38 l0 37 -21 -32
c-12 -18 -25 -33 -30 -33 -5 0 -16 15 -26 33 l-18 32 -3 -37 c-3 -30 -7 -38
-23 -38 -17 0 -19 7 -19 75 0 68 2 75 20 75 12 0 28 -15 42 -40z m258 -35 c0
-68 -2 -75 -20 -75 -18 0 -20 7 -20 75 0 68 2 75 20 75 18 0 20 -7 20 -75z
m176 38 l33 -38 1 38 c0 30 4 37 20 37 18 0 20 -7 20 -75 0 -89 -13 -97 -66
-37 l-33 37 -1 -37 c0 -31 -4 -38 -20 -38 -18 0 -20 7 -20 75 0 89 13 97 66
38z m305 26 c29 -15 12 -31 -27 -23 -40 7 -64 -8 -64 -40 0 -28 18 -46 47 -46
18 0 23 6 23 25 0 18 5 25 20 25 16 0 20 -7 20 -34 0 -37 -12 -46 -64 -46 -78
0 -116 85 -60 129 29 23 74 27 105 10z m232 -43 c39 -86 41 -96 19 -96 -11 0
-22 7 -26 15 -7 20 -66 19 -81 -1 -6 -9 -18 -15 -27 -13 -13 3 -10 16 16 76
25 58 35 73 53 73 16 0 27 -13 46 -54z m-3213 -302 c0 -46 17 -162 36 -249 21
-91 82 -218 133 -276 177 -201 539 -199 655 4 39 69 50 138 51 317 l0 165
-150 5 c-146 5 -150 6 -153 28 l-3 22 419 0 419 0 -2 -22 c-2 -22 -5 -23 -123
-26 l-122 -3 0 -94 c0 -245 -100 -419 -296 -518 -164 -82 -393 -99 -569 -43
-209 67 -402 238 -514 456 -45 86 -101 231 -101 259 0 7 53 11 160 11 l160 0
0 -36z m2340 -269 l0 -304 118 -3 c115 -3 117 -3 117 -26 l0 -23 -365 0 -365
1 0 22 c0 22 3 23 118 26 l117 3 0 304 0 305 130 0 130 0 0 -305z"/>
<path d="M1952 3058 c-7 -7 -12 -21 -12 -33 0 -47 62 -63 81 -21 22 47 -33 90
-69 54z"/>
<path d="M2460 3025 c0 -40 2 -45 23 -45 29 0 47 18 47 45 0 27 -18 45 -47 45
-21 0 -23 -5 -23 -45z"/>
<path d="M2712 3058 c-7 -7 -12 -21 -12 -33 0 -47 62 -63 81 -21 22 47 -33 90
-69 54z"/>
<path d="M3326 3035 c-8 -22 -3 -28 19 -23 14 3 14 5 2 22 -13 18 -14 18 -21
1z"/>
<path d="M4766 3035 c-8 -22 -3 -28 19 -23 14 3 14 5 2 22 -13 18 -14 18 -21
1z"/>
</g>
</svg>
