<?xml version="1.0" standalone="no"?>
<!DOCTYPE svg PUBLIC "-//W3C//DTD SVG 20010904//EN"
 "http://www.w3.org/TR/2001/REC-SVG-20010904/DTD/svg10.dtd">
<svg version="1.0" xmlns="http://www.w3.org/2000/svg"
 width="599.000000pt" height="594.000000pt" viewBox="0 0 599.000000 594.000000"
 preserveAspectRatio="xMidYMid meet">

<g transform="translate(0.000000,594.000000) scale(0.100000,-0.100000)"
fill="#000000" stroke="none">
<path d="M2786 4970 c-193 -22 -400 -75 -563 -144 -438 -186 -782 -495 -1002
-901 -40 -75 -71 -138 -68 -141 3 -3 33 48 67 113 458 872 1495 1283 2427 962
64 -22 163 -62 220 -89 57 -27 103 -46 103 -44 0 10 -226 112 -316 143 -100
34 -223 65 -348 87 -100 18 -413 26 -520 14z"/>
<path d="M1442 3663 c-61 -30 -132 -104 -207 -217 -82 -123 -218 -398 -285
-576 -45 -118 -60 -148 -60 -116 0 26 64 248 110 383 23 65 45 132 51 148 5
17 28 68 52 115 30 60 50 89 70 98 28 14 34 26 17 37 -32 20 -104 -78 -169
-232 -72 -173 -166 -476 -186 -600 -4 -28 -20 -59 -46 -90 -76 -92 -101 -192
-66 -260 54 -104 318 -98 554 12 316 148 506 456 416 673 -41 99 -158 152
-335 152 -54 0 -98 2 -98 5 0 3 30 33 66 67 124 116 201 238 211 332 8 80 -25
104 -95 69z m62 -68 c-3 -113 -153 -302 -315 -397 -34 -21 -65 -36 -67 -33 -6
6 113 228 155 288 88 126 168 201 208 195 17 -3 20 -10 19 -53z m-294 -453
c113 15 254 6 318 -22 71 -31 125 -93 141 -163 30 -137 -69 -324 -248 -466
-120 -94 -300 -161 -457 -169 -117 -6 -162 5 -199 49 -35 43 -34 99 5 167 30
51 50 60 50 23 0 -9 5 -22 12 -29 23 -23 47 7 74 94 27 86 28 87 88 126 114
73 244 125 423 169 29 7 50 16 47 21 -16 26 -256 -46 -402 -121 -53 -28 -98
-48 -100 -46 -5 5 76 216 120 313 22 48 32 61 41 53 9 -7 36 -7 87 1z"/>
<path d="M3092 3475 c-43 -19 -122 -101 -176 -183 -75 -116 -167 -313 -182
-392 -12 -63 -157 -260 -190 -260 -37 0 -26 106 22 208 39 81 74 113 105 94
29 -18 59 -15 59 6 0 26 -20 42 -53 42 -43 0 -59 -12 -130 -102 -117 -147
-253 -248 -335 -248 -62 0 -75 16 -69 86 2 32 12 85 21 118 13 42 14 62 6 70
-18 18 -41 -5 -107 -110 -33 -54 -77 -113 -97 -131 -45 -42 -88 -44 -113 -7
-14 23 -15 33 -5 81 6 30 24 79 39 109 15 29 24 56 20 60 -25 25 -75 -64 -95
-171 -14 -72 -5 -112 31 -139 60 -45 149 20 237 174 30 51 56 87 58 80 2 -6 0
-22 -6 -33 -18 -38 -42 -120 -42 -143 0 -65 53 -101 127 -88 59 10 142 59 212
124 36 33 66 58 68 57 2 -2 -2 -17 -8 -34 -5 -17 -9 -52 -7 -78 6 -101 73 -89
168 29 l55 69 5 -49 c7 -64 24 -93 65 -110 65 -27 175 29 269 137 38 43 38 43
32 14 -4 -16 -10 -53 -13 -81 -5 -45 -3 -53 17 -67 40 -28 103 15 187 128 l22
30 0 -32 c1 -46 30 -112 54 -124 31 -17 91 -12 135 10 l40 21 7 -42 c19 -108
143 -120 185 -18 7 16 18 30 26 30 28 0 111 34 159 65 84 53 229 215 210 233
-4 4 -17 -6 -28 -23 -12 -16 -56 -64 -98 -106 -77 -77 -178 -139 -226 -139
-21 0 -23 4 -22 43 1 80 25 197 47 227 25 33 28 50 9 50 -17 0 -53 -38 -75
-79 -25 -45 -121 -151 -137 -151 -8 0 -21 -10 -30 -23 -23 -36 -89 -69 -131
-65 -55 5 -78 40 -76 120 0 35 5 74 10 88 6 14 45 59 87 100 125 121 255 299
298 408 24 60 23 119 -2 127 -47 14 -161 -82 -236 -200 -54 -83 -131 -244
-165 -345 -18 -52 -51 -122 -73 -155 -46 -69 -116 -145 -133 -145 -50 0 5 211
73 283 27 27 57 35 68 17 11 -17 45 -11 45 8 0 26 -20 42 -53 42 -44 0 -61
-14 -121 -100 -60 -85 -164 -191 -224 -227 -48 -30 -105 -30 -131 -2 -25 27
-34 88 -23 156 8 48 15 59 75 113 170 156 337 411 337 514 0 47 -21 55 -78 31z
m48 -50 c0 -37 -50 -139 -112 -228 -54 -77 -203 -237 -221 -237 -16 0 2 51 63
176 62 128 159 268 207 296 41 26 63 23 63 -7z m580 -5 c0 -38 -73 -179 -135
-261 -92 -120 -205 -227 -205 -194 0 11 53 132 87 199 102 202 253 355 253
256z m-28 -720 c-7 -40 -11 -45 -32 -42 -13 1 -35 12 -47 24 l-23 21 53 56 52
56 3 -35 c1 -19 -1 -55 -6 -80z m-94 -64 c15 -8 40 -19 55 -25 25 -10 27 -13
16 -33 -15 -29 -28 -38 -56 -38 -28 0 -63 45 -63 81 0 32 10 35 48 15z"/>
<path d="M5061 3093 c-1 -20 -7 -23 -40 -23 -22 0 -43 -4 -46 -10 -4 -6 12
-10 39 -10 39 0 46 -3 46 -20 0 -11 5 -20 10 -20 12 0 12 44 0 80 -8 24 -8 24
-9 3z"/>
<path d="M4970 2949 c0 -5 7 -12 15 -15 8 -4 15 -16 15 -29 0 -12 -7 -28 -15
-35 -31 -26 -13 -28 38 -6 28 13 52 29 52 35 0 6 -24 22 -52 36 -29 13 -53 20
-53 14z m70 -39 c13 -9 13 -11 0 -20 -22 -15 -30 -12 -30 10 0 22 8 25 30 10z"/>
<path d="M4960 2771 c0 -6 17 -11 38 -13 l37 -3 -30 -15 c-16 -8 -32 -16 -35
-17 -2 -2 9 -15 25 -29 l30 -25 -37 5 c-21 2 -38 1 -38 -3 0 -5 17 -11 38 -15
82 -13 92 -4 37 36 l-35 25 40 18 c22 10 40 21 40 25 0 7 -58 20 -92 20 -10 0
-18 -4 -18 -9z"/>
<path d="M4935 2570 c3 -5 15 -10 25 -10 30 0 34 -19 5 -26 -31 -8 -31 -11 -2
-42 l22 -25 -37 7 c-21 4 -38 3 -38 -2 0 -10 102 -34 109 -26 3 2 -10 20 -28
38 l-33 34 41 13 c22 7 41 16 41 20 0 9 -65 29 -93 29 -10 0 -15 -4 -12 -10z"/>
<path d="M4885 2380 c-3 -4 16 -15 42 -24 53 -18 63 -19 63 -8 0 12 -99 42
-105 32z"/>
<path d="M4860 2281 c0 -5 15 -15 33 -21 l32 -12 -48 -16 c-26 -9 -46 -20 -44
-25 4 -13 97 -47 97 -36 0 6 -14 15 -31 21 -35 12 -30 21 24 38 20 6 37 15 37
20 0 4 -21 15 -47 24 -55 19 -53 19 -53 7z"/>
<path d="M4776 2098 c-22 -31 -20 -55 5 -63 25 -8 39 2 15 11 -38 15 -3 60 39
50 30 -8 34 -40 8 -68 -15 -16 -15 -18 0 -18 18 0 37 29 37 58 0 48 -76 70
-104 30z"/>
<path d="M1181 2060 c0 -21 102 -193 179 -302 86 -121 267 -308 390 -403 99
-75 267 -181 276 -173 2 3 -29 24 -68 48 -175 102 -392 290 -521 450 -64 79
-170 238 -224 337 -18 32 -32 51 -32 43z"/>
<path d="M4724 1967 c7 -28 -20 -71 -40 -63 -8 3 -14 2 -14 -3 0 -10 49 -21
91 -21 37 0 36 11 -3 66 -36 50 -43 54 -34 21z m34 -49 c19 -19 14 -26 -12
-21 -16 3 -23 10 -19 19 6 17 15 18 31 2z"/>
<path d="M4551 1734 c-26 -33 -27 -63 -3 -71 9 -3 25 -13 34 -21 15 -13 20
-11 49 18 l33 32 -40 34 c-21 18 -42 33 -46 34 -4 0 -16 -12 -27 -26z m30 -38
c-28 -27 -47 -10 -25 22 13 19 19 21 30 11 13 -11 12 -15 -5 -33z m43 -27
c-17 -19 -34 -17 -34 5 0 22 22 37 37 24 11 -9 11 -14 -3 -29z"/>
<path d="M4430 1591 c-16 -31 -12 -45 20 -76 38 -36 53 -24 17 13 -31 32 -33
44 -12 62 13 11 21 8 49 -19 39 -38 57 -29 19 11 -32 33 -77 38 -93 9z"/>
<path d="M4311 1474 c-23 -30 -26 -46 -11 -75 16 -28 70 -25 99 5 l22 24 -31
36 c-38 43 -52 45 -79 10z m78 -60 c-17 -20 -48 -27 -64 -14 -20 16 -19 45 1
65 15 15 19 14 45 -11 21 -21 26 -31 18 -40z"/>
<path d="M4177 1362 c-30 -32 -35 -63 -11 -86 21 -22 50 -20 85 5 l29 20 -32
45 c-17 24 -34 44 -38 44 -3 0 -18 -13 -33 -28z m56 -28 c22 -30 9 -54 -29
-54 -33 0 -47 31 -28 58 20 28 35 27 57 -4z"/>
<path d="M4025 1260 c-29 -32 -12 -54 35 -46 33 5 40 3 40 -10 0 -9 -9 -18
-20 -21 -19 -5 -29 -23 -12 -23 18 0 52 33 52 50 0 23 -15 29 -57 22 -41 -6
-44 12 -5 32 24 13 25 15 6 16 -11 0 -29 -9 -39 -20z"/>
</g>
</svg>
