<?xml version="1.0" standalone="no"?>
<!DOCTYPE svg PUBLIC "-//W3C//DTD SVG 20010904//EN"
 "http://www.w3.org/TR/2001/REC-SVG-20010904/DTD/svg10.dtd">
<svg version="1.0" xmlns="http://www.w3.org/2000/svg"
 width="601.000000pt" height="603.000000pt" viewBox="0 0 601.000000 603.000000"
 preserveAspectRatio="xMidYMid meet">

<g transform="translate(0.000000,603.000000) scale(0.100000,-0.100000)"
fill="#000000" stroke="none">
<path d="M0 3015 l0 -3015 3005 0 3005 0 0 3015 0 3015 -3005 0 -3005 0 0
-3015z m2541 1619 c157 -29 261 -77 333 -154 79 -85 87 -186 20 -276 -27 -36
-75 -61 -153 -80 -101 -24 -98 -26 -106 74 -18 233 -81 348 -221 403 -51 20
-77 23 -189 23 -177 0 -283 -33 -383 -119 -168 -145 -242 -429 -241 -920 0
-295 28 -509 84 -647 l24 -58 -145 0 -144 0 -24 38 c-177 282 -223 741 -108
1097 120 369 396 589 798 635 107 12 352 4 455 -16z m2053 -936 c3 -13 7 -130
10 -261 5 -188 3 -238 -7 -235 -7 3 -16 44 -24 114 -31 303 -123 374 -485 374
l-168 0 0 -405 0 -405 -170 0 -170 0 0 405 0 405 -167 0 c-186 0 -269 -14
-341 -56 -39 -23 -102 -94 -102 -116 0 -4 36 -8 81 -8 60 0 80 -3 77 -12 -3
-7 -27 -15 -54 -18 -63 -7 -109 -35 -131 -80 -14 -29 -18 -74 -21 -277 l-4
-243 -168 0 -169 0 -3 233 c-3 211 -5 236 -24 272 -23 46 -106 95 -160 95 -18
0 -39 3 -48 6 -49 19 10 24 268 24 l284 0 7 105 7 105 839 0 839 0 4 -22z
m-2786 -1109 c4 -11 2 -12 -9 -1 -18 17 -46 15 -53 -3 -7 -20 3 -45 19 -45 22
0 27 18 8 23 -10 3 -3 5 15 6 30 1 32 -1 22 -19 -17 -31 -67 -27 -82 6 -11 23
-10 29 10 45 25 20 63 13 70 -12z m632 4 c0 9 5 17 10 17 6 0 10 -21 10 -47
l-1 -48 -22 29 -21 30 -7 -25 c-5 -17 -7 -10 -8 26 l-1 50 20 -25 c16 -20 20
-22 20 -7z m825 -61 c-3 -4 -10 0 -15 8 -8 13 -13 13 -31 2 -11 -7 -22 -12
-24 -10 -1 2 7 23 18 48 l19 45 20 -43 c11 -24 17 -47 13 -50z m158 63 l15 29
11 -39 c13 -49 14 -55 1 -55 -5 0 -10 8 -10 18 -1 15 -2 15 -15 -2 -15 -20
-15 -20 -30 0 -13 17 -14 17 -15 2 0 -10 -5 -18 -10 -18 -7 0 -8 14 -4 38 10
54 16 60 30 27 l11 -29 16 29z m190 0 l15 29 11 -39 c13 -49 14 -55 1 -55 -5
0 -10 8 -10 18 -1 15 -2 15 -15 -2 -15 -20 -15 -20 -30 0 -13 17 -14 17 -15 2
0 -10 -5 -18 -10 -18 -7 0 -8 14 -4 38 10 54 16 60 30 27 l11 -29 16 29z m297
-7 c0 12 5 22 10 22 6 0 10 -21 10 -47 l-1 -48 -24 30 c-24 28 -25 29 -25 8 0
-13 -4 -23 -10 -23 -11 0 -14 73 -3 83 3 4 15 -5 25 -20 17 -27 18 -27 18 -5z
m204 6 c6 -17 -6 -18 -21 -3 -16 16 -43 3 -43 -20 0 -24 16 -35 38 -26 15 6
15 8 -3 15 -18 8 -17 9 8 9 15 1 27 -3 27 -7 0 -15 -24 -32 -45 -32 -28 0 -45
18 -45 47 0 38 70 52 84 17z m166 -22 c7 -18 9 -36 5 -40 -4 -4 -10 -1 -12 6
-6 15 -30 16 -35 1 -2 -7 -9 -10 -14 -8 -7 2 -3 21 9 48 20 46 26 45 47 -7z
m-2353 -24 c-2 -13 -4 -3 -4 22 0 25 2 35 4 23 2 -13 2 -33 0 -45z m130 42 c3
-11 9 -20 13 -20 5 0 12 9 15 20 5 16 25 29 25 16 0 -15 -32 -76 -40 -76 -6 0
-10 2 -10 4 0 2 -7 20 -15 40 -10 24 -12 36 -4 36 6 0 13 -9 16 -20z m233 0
c16 -30 -4 -60 -41 -60 -36 0 -60 39 -39 65 18 22 67 19 80 -5z m344 -2 c16
-26 -4 -52 -43 -56 -30 -3 -31 -2 -31 38 0 40 1 41 31 38 18 -2 37 -11 43 -20z
m186 2 c16 -30 -4 -60 -41 -60 -36 0 -60 39 -39 65 18 22 67 19 80 -5z m273
13 c-7 -2 -13 -20 -13 -39 0 -47 -17 -43 -22 6 -3 37 -2 40 22 39 14 0 19 -3
13 -6z m667 -33 c0 -22 -4 -40 -10 -40 -5 0 -10 18 -10 40 0 22 5 40 10 40 6
0 10 -18 10 -40z m160 -529 c0 -263 4 -288 60 -334 33 -28 62 -36 150 -40 41
-1 55 -6 55 -17 0 -13 -56 -15 -440 -15 -384 0 -440 2 -440 15 0 11 14 16 55
17 91 5 119 13 155 44 56 50 65 98 65 351 l0 218 170 0 170 0 0 -239z"/>
<path d="M2226 2585 c-7 -20 3 -45 19 -45 19 0 36 25 29 44 -8 20 -40 21 -48
1z"/>
<path d="M2580 2570 c0 -35 25 -42 35 -10 8 24 -1 40 -21 40 -9 0 -14 -11 -14
-30z"/>
<path d="M2756 2585 c-7 -20 3 -45 19 -45 19 0 36 25 29 44 -8 20 -40 21 -48
1z"/>
</g>
</svg>
