<?xml version="1.0" standalone="no"?>
<!DOCTYPE svg PUBLIC "-//W3C//DTD SVG 20010904//EN"
 "http://www.w3.org/TR/2001/REC-SVG-20010904/DTD/svg10.dtd">
<svg version="1.0" xmlns="http://www.w3.org/2000/svg"
 width="599.000000pt" height="601.000000pt" viewBox="0 0 599.000000 601.000000"
 preserveAspectRatio="xMidYMid meet">

<g transform="translate(0.000000,601.000000) scale(0.100000,-0.100000)"
fill="#000000" stroke="none">
<path d="M0 3005 l0 -3005 2995 0 2995 0 0 3005 0 3005 -2995 0 -2995 0 0
-3005z m2473 894 c40 -6 107 -20 150 -31 l77 -20 0 -104 c0 -57 -4 -104 -9
-104 -5 0 -21 21 -36 46 -84 144 -270 226 -442 197 -176 -31 -331 -179 -400
-383 -10 -30 -22 -58 -28 -62 -14 -11 -113 -10 -119 1 -9 13 67 161 117 226
81 108 218 199 345 229 69 17 247 20 345 5z m1937 -119 c0 -95 -11 -127 -25
-77 -12 38 -67 86 -124 108 -72 27 -188 49 -257 49 l-54 0 -2 -212 -3 -213
-60 0 -60 0 -3 213 -2 212 -56 0 c-173 0 -374 -86 -374 -161 0 -10 -4 -19 -10
-19 -6 0 -10 40 -10 100 l0 100 520 0 520 0 0 -100z m-3135 -563 c11 -9 14
-16 7 -21 -6 -3 -13 -2 -17 4 -3 5 -21 10 -40 10 -56 0 -83 -59 -49 -108 12
-18 24 -22 52 -20 34 3 37 6 40 36 4 43 22 41 22 -3 0 -39 -20 -55 -70 -55
-71 0 -107 94 -55 145 27 28 80 33 110 12z m155 -72 c0 -50 -4 -85 -10 -85 -6
0 -10 35 -10 85 0 50 4 85 10 85 6 0 10 -35 10 -85z m150 17 c14 -34 28 -62
31 -62 3 0 18 29 34 65 15 36 32 65 37 65 12 0 4 -25 -33 -108 -16 -36 -34
-62 -41 -60 -9 3 -78 148 -78 165 0 2 5 3 12 1 7 -3 24 -32 38 -66z m345 43
c54 -53 16 -145 -59 -145 -52 0 -88 35 -88 85 0 76 93 115 147 60z m202 -37
l48 -63 3 63 c4 93 22 75 22 -23 0 -48 -4 -85 -10 -85 -5 0 -32 30 -60 66
l-50 67 0 -67 c0 -37 -4 -66 -10 -66 -6 0 -10 35 -10 85 0 47 4 85 9 85 6 0
31 -28 58 -62z m327 41 c21 -16 26 -29 26 -64 0 -60 -32 -85 -106 -85 l-54 0
0 85 0 85 54 0 c39 0 60 -6 80 -21z m270 0 c21 -16 26 -29 26 -64 0 -35 -5
-48 -26 -64 -60 -47 -144 -10 -144 64 0 74 84 111 144 64z m386 11 c0 -5 -13
-10 -30 -10 l-30 0 0 -75 c0 -43 -4 -75 -10 -75 -6 0 -10 32 -10 75 l0 75 -30
0 c-16 0 -30 5 -30 10 0 6 30 10 70 10 40 0 70 -4 70 -10z m206 -74 c19 -43
33 -81 30 -83 -8 -8 -26 7 -26 23 0 10 -13 14 -49 14 -41 0 -51 -4 -56 -20 -3
-11 -12 -20 -20 -20 -9 0 -2 26 24 85 22 51 41 84 49 82 7 -1 29 -37 48 -81z
m187 23 l34 -62 33 62 c18 33 37 61 41 61 5 0 9 -38 9 -85 0 -50 -4 -85 -10
-85 -6 0 -10 28 -10 63 l-1 62 -24 -47 c-14 -26 -29 -49 -34 -53 -6 -3 -24 18
-41 47 l-30 53 0 -62 c0 -35 -4 -63 -10 -63 -6 0 -10 35 -10 85 0 47 4 85 9
85 5 0 25 -28 44 -61z m300 0 l34 -62 33 62 c18 33 37 61 41 61 5 0 9 -38 9
-85 0 -50 -4 -85 -10 -85 -6 0 -10 28 -10 63 l-1 62 -24 -47 c-14 -26 -29 -49
-34 -53 -6 -3 -24 18 -41 47 l-30 53 0 -62 c0 -35 -4 -63 -10 -63 -6 0 -10 35
-10 85 0 47 4 85 9 85 5 0 25 -28 44 -61z m267 -24 c0 -69 -3 -85 -15 -85 -12
0 -15 16 -15 85 0 69 3 85 15 85 12 0 15 -16 15 -85z m187 23 l48 -63 3 63 c4
93 22 75 22 -23 0 -48 -4 -85 -10 -85 -5 0 -32 30 -60 66 l-50 67 0 -67 c0
-37 -4 -66 -10 -66 -6 0 -10 35 -10 85 0 47 4 85 9 85 6 0 31 -28 58 -62z
m318 49 c11 -9 14 -16 7 -21 -6 -3 -13 -2 -17 4 -3 5 -21 10 -40 10 -56 0 -83
-59 -49 -108 12 -18 24 -22 52 -20 34 3 37 6 40 36 4 43 22 41 22 -3 0 -39
-20 -55 -70 -55 -44 0 -80 39 -80 85 0 68 81 111 135 72z m241 -71 c19 -43 33
-81 30 -83 -8 -8 -26 7 -26 23 0 10 -13 14 -49 14 -41 0 -51 -4 -56 -20 -3
-11 -12 -20 -20 -20 -9 0 -2 26 24 85 22 51 41 84 49 82 7 -1 29 -37 48 -81z
m-3025 -283 c55 -202 179 -366 326 -436 61 -29 77 -32 158 -31 124 1 190 27
270 108 91 92 100 115 100 274 l0 132 68 0 67 0 0 -126 c0 -122 -1 -126 -29
-168 -72 -105 -206 -199 -327 -230 -78 -20 -210 -20 -293 -1 -195 46 -373 209
-453 415 -47 119 -49 110 30 110 l69 0 14 -47z m2163 -140 c4 -104 11 -205 17
-225 11 -42 50 -78 85 -78 13 0 24 -4 24 -10 0 -6 -74 -10 -201 -10 -131 0
-198 3 -194 10 3 6 17 10 31 10 33 0 70 38 84 86 6 22 14 121 17 222 l6 182
62 0 62 0 7 -187z"/>
<path d="M1817 3192 c-22 -25 -21 -75 1 -95 27 -25 78 -22 96 5 34 48 7 108
-48 108 -19 0 -40 -8 -49 -18z"/>
<path d="M2350 3145 l0 -65 38 0 c47 0 72 24 72 67 0 39 -28 63 -73 63 l-37 0
0 -65z"/>
<path d="M2616 3188 c-34 -48 -7 -108 48 -108 19 0 40 8 49 18 22 25 21 75 -1
95 -27 25 -78 22 -96 -5z"/>
<path d="M3247 3160 l-15 -40 34 0 c19 0 34 2 34 5 0 10 -29 75 -33 75 -2 0
-11 -18 -20 -40z"/>
<path d="M4747 3160 l-15 -40 34 0 c19 0 34 2 34 5 0 10 -29 75 -33 75 -2 0
-11 -18 -20 -40z"/>
</g>
</svg>
